<svg xmlns="http://www.w3.org/2000/svg" xmlns:xlink="http://www.w3.org/1999/xlink" id="processonSvg1000" viewBox="129.5 61.0 1330.5 1838.0" width="1330.5" height="1838.0"><defs id="ProcessOnDefs1001"><marker id="ProcessOnMarker1152" markerUnits="userSpaceOnUse" orient="auto" markerWidth="16.23606797749979" markerHeight="10.550836550532098" viewBox="-1.0 -1.3763819204711736 16.23606797749979 10.550836550532098" refX="-1.0" refY="3.8990363547948754"><path id="ProcessOnPath1153" d="M12.0 3.8990363547948754L0.0 7.798072709589751V0.0Z" stroke="#323232" stroke-width="2.0" fill="#323232" transform="matrix(1.0,0.0,0.0,1.0,0.0,0.0)"/></marker><marker id="ProcessOnMarker1156" markerUnits="userSpaceOnUse" orient="auto" markerWidth="16.23606797749979" markerHeight="10.550836550532098" viewBox="-1.0 -1.3763819204711736 16.23606797749979 10.550836550532098" refX="-1.0" refY="3.8990363547948754"><path id="ProcessOnPath1157" d="M12.0 3.8990363547948754L0.0 7.798072709589751V0.0Z" stroke="#323232" stroke-width="2.0" fill="#323232" transform="matrix(1.0,0.0,0.0,1.0,0.0,0.0)"/></marker><marker id="ProcessOnMarker1160" markerUnits="userSpaceOnUse" orient="auto" markerWidth="16.23606797749979" markerHeight="10.550836550532098" viewBox="-1.0 -1.3763819204711736 16.23606797749979 10.550836550532098" refX="-1.0" refY="3.8990363547948754"><path id="ProcessOnPath1161" d="M12.0 3.8990363547948754L0.0 7.798072709589751V0.0Z" stroke="#323232" stroke-width="2.0" fill="#323232" transform="matrix(1.0,0.0,0.0,1.0,0.0,0.0)"/></marker><marker id="ProcessOnMarker1164" markerUnits="userSpaceOnUse" orient="auto" markerWidth="16.23606797749979" markerHeight="10.550836550532098" viewBox="-1.0 -1.3763819204711736 16.23606797749979 10.550836550532098" refX="-1.0" refY="3.8990363547948754"><path id="ProcessOnPath1165" d="M12.0 3.8990363547948754L0.0 7.798072709589751V0.0Z" stroke="#323232" stroke-width="2.0" fill="#323232" transform="matrix(1.0,0.0,0.0,1.0,0.0,0.0)"/></marker><marker id="ProcessOnMarker1168" markerUnits="userSpaceOnUse" orient="auto" markerWidth="16.23606797749979" markerHeight="10.550836550532098" viewBox="-1.0 -1.3763819204711736 16.23606797749979 10.550836550532098" refX="-1.0" refY="3.8990363547948754"><path id="ProcessOnPath1169" d="M12.0 3.8990363547948754L0.0 7.798072709589751V0.0Z" stroke="#323232" stroke-width="2.0" fill="#323232" transform="matrix(1.0,0.0,0.0,1.0,0.0,0.0)"/></marker><marker id="ProcessOnMarker1172" markerUnits="userSpaceOnUse" orient="auto" markerWidth="16.23606797749979" markerHeight="10.550836550532098" viewBox="-1.0 -1.3763819204711736 16.23606797749979 10.550836550532098" refX="-1.0" refY="3.8990363547948754"><path id="ProcessOnPath1173" d="M12.0 3.8990363547948754L0.0 7.798072709589751V0.0Z" stroke="#323232" stroke-width="2.0" fill="#323232" transform="matrix(1.0,0.0,0.0,1.0,0.0,0.0)"/></marker><marker id="ProcessOnMarker1176" markerUnits="userSpaceOnUse" orient="auto" markerWidth="16.23606797749979" markerHeight="10.550836550532098" viewBox="-1.0 -1.3763819204711736 16.23606797749979 10.550836550532098" refX="-1.0" refY="3.8990363547948754"><path id="ProcessOnPath1177" d="M12.0 3.8990363547948754L0.0 7.798072709589751V0.0Z" stroke="#323232" stroke-width="2.0" fill="#323232" transform="matrix(1.0,0.0,0.0,1.0,0.0,0.0)"/></marker><marker id="ProcessOnMarker1180" markerUnits="userSpaceOnUse" orient="auto" markerWidth="16.23606797749979" markerHeight="10.550836550532098" viewBox="-1.0 -1.3763819204711736 16.23606797749979 10.550836550532098" refX="-1.0" refY="3.8990363547948754"><path id="ProcessOnPath1181" d="M12.0 3.8990363547948754L0.0 7.798072709589751V0.0Z" stroke="#323232" stroke-width="2.0" fill="#323232" transform="matrix(1.0,0.0,0.0,1.0,0.0,0.0)"/></marker><marker id="ProcessOnMarker1184" markerUnits="userSpaceOnUse" orient="auto" markerWidth="16.23606797749979" markerHeight="10.550836550532098" viewBox="-1.0 -1.3763819204711736 16.23606797749979 10.550836550532098" refX="-1.0" refY="3.8990363547948754"><path id="ProcessOnPath1185" d="M12.0 3.8990363547948754L0.0 7.798072709589751V0.0Z" stroke="#323232" stroke-width="2.0" fill="#323232" transform="matrix(1.0,0.0,0.0,1.0,0.0,0.0)"/></marker><marker id="ProcessOnMarker1188" markerUnits="userSpaceOnUse" orient="auto" markerWidth="16.23606797749979" markerHeight="10.550836550532098" viewBox="-1.0 -1.3763819204711736 16.23606797749979 10.550836550532098" refX="-1.0" refY="3.8990363547948754"><path id="ProcessOnPath1189" d="M12.0 3.8990363547948754L0.0 7.798072709589751V0.0Z" stroke="#323232" stroke-width="2.0" fill="#323232" transform="matrix(1.0,0.0,0.0,1.0,0.0,0.0)"/></marker><marker id="ProcessOnMarker1192" markerUnits="userSpaceOnUse" orient="auto" markerWidth="16.23606797749979" markerHeight="10.550836550532098" viewBox="-1.0 -1.3763819204711736 16.23606797749979 10.550836550532098" refX="-1.0" refY="3.8990363547948754"><path id="ProcessOnPath1193" d="M12.0 3.8990363547948754L0.0 7.798072709589751V0.0Z" stroke="#323232" stroke-width="2.0" fill="#323232" transform="matrix(1.0,0.0,0.0,1.0,0.0,0.0)"/></marker><marker id="ProcessOnMarker1196" markerUnits="userSpaceOnUse" orient="auto" markerWidth="16.23606797749979" markerHeight="10.550836550532098" viewBox="-1.0 -1.3763819204711736 16.23606797749979 10.550836550532098" refX="-1.0" refY="3.8990363547948754"><path id="ProcessOnPath1197" d="M12.0 3.8990363547948754L0.0 7.798072709589751V0.0Z" stroke="#323232" stroke-width="2.0" fill="#323232" transform="matrix(1.0,0.0,0.0,1.0,0.0,0.0)"/></marker><marker id="ProcessOnMarker1200" markerUnits="userSpaceOnUse" orient="auto" markerWidth="16.23606797749979" markerHeight="10.550836550532098" viewBox="-1.0 -1.3763819204711736 16.23606797749979 10.550836550532098" refX="-1.0" refY="3.8990363547948754"><path id="ProcessOnPath1201" d="M12.0 3.8990363547948754L0.0 7.798072709589751V0.0Z" stroke="#323232" stroke-width="2.0" fill="#323232" transform="matrix(1.0,0.0,0.0,1.0,0.0,0.0)"/></marker><marker id="ProcessOnMarker1204" markerUnits="userSpaceOnUse" orient="auto" markerWidth="16.23606797749979" markerHeight="10.550836550532098" viewBox="-1.0 -1.3763819204711736 16.23606797749979 10.550836550532098" refX="-1.0" refY="3.8990363547948754"><path id="ProcessOnPath1205" d="M12.0 3.8990363547948754L0.0 7.798072709589751V0.0Z" stroke="#323232" stroke-width="2.0" fill="#323232" transform="matrix(1.0,0.0,0.0,1.0,0.0,0.0)"/></marker><marker id="ProcessOnMarker1208" markerUnits="userSpaceOnUse" orient="auto" markerWidth="16.23606797749979" markerHeight="10.550836550532098" viewBox="-1.0 -1.3763819204711736 16.23606797749979 10.550836550532098" refX="-1.0" refY="3.8990363547948754"><path id="ProcessOnPath1209" d="M12.0 3.8990363547948754L0.0 7.798072709589751V0.0Z" stroke="#323232" stroke-width="2.0" fill="#323232" transform="matrix(1.0,0.0,0.0,1.0,0.0,0.0)"/></marker><marker id="ProcessOnMarker1212" markerUnits="userSpaceOnUse" orient="auto" markerWidth="16.23606797749979" markerHeight="10.550836550532098" viewBox="-1.0 -1.3763819204711736 16.23606797749979 10.550836550532098" refX="-1.0" refY="3.8990363547948754"><path id="ProcessOnPath1213" d="M12.0 3.8990363547948754L0.0 7.798072709589751V0.0Z" stroke="#323232" stroke-width="2.0" fill="#323232" transform="matrix(1.0,0.0,0.0,1.0,0.0,0.0)"/></marker><marker id="ProcessOnMarker1242" markerUnits="userSpaceOnUse" orient="auto" markerWidth="16.23606797749979" markerHeight="10.550836550532098" viewBox="-1.0 -1.3763819204711736 16.23606797749979 10.550836550532098" refX="-1.0" refY="3.8990363547948754"><path id="ProcessOnPath1243" d="M12.0 3.8990363547948754L0.0 7.798072709589751V0.0Z" stroke="#323232" stroke-width="2.0" fill="#323232" transform="matrix(1.0,0.0,0.0,1.0,0.0,0.0)"/></marker><marker id="ProcessOnMarker1246" markerUnits="userSpaceOnUse" orient="auto" markerWidth="16.23606797749979" markerHeight="10.550836550532098" viewBox="-1.0 -1.3763819204711736 16.23606797749979 10.550836550532098" refX="-1.0" refY="3.8990363547948754"><path id="ProcessOnPath1247" d="M12.0 3.8990363547948754L0.0 7.798072709589751V0.0Z" stroke="#323232" stroke-width="2.0" fill="#323232" transform="matrix(1.0,0.0,0.0,1.0,0.0,0.0)"/></marker><marker id="ProcessOnMarker1250" markerUnits="userSpaceOnUse" orient="auto" markerWidth="16.23606797749979" markerHeight="10.550836550532098" viewBox="-1.0 -1.3763819204711736 16.23606797749979 10.550836550532098" refX="-1.0" refY="3.8990363547948754"><path id="ProcessOnPath1251" d="M12.0 3.8990363547948754L0.0 7.798072709589751V0.0Z" stroke="#323232" stroke-width="2.0" fill="#323232" transform="matrix(1.0,0.0,0.0,1.0,0.0,0.0)"/></marker><marker id="ProcessOnMarker1254" markerUnits="userSpaceOnUse" orient="auto" markerWidth="16.23606797749979" markerHeight="10.550836550532098" viewBox="-1.0 -1.3763819204711736 16.23606797749979 10.550836550532098" refX="-1.0" refY="3.8990363547948754"><path id="ProcessOnPath1255" d="M12.0 3.8990363547948754L0.0 7.798072709589751V0.0Z" stroke="#323232" stroke-width="2.0" fill="#323232" transform="matrix(1.0,0.0,0.0,1.0,0.0,0.0)"/></marker><marker id="ProcessOnMarker1258" markerUnits="userSpaceOnUse" orient="auto" markerWidth="16.23606797749979" markerHeight="10.550836550532098" viewBox="-1.0 -1.3763819204711736 16.23606797749979 10.550836550532098" refX="-1.0" refY="3.8990363547948754"><path id="ProcessOnPath1259" d="M12.0 3.8990363547948754L0.0 7.798072709589751V0.0Z" stroke="#323232" stroke-width="2.0" fill="#323232" transform="matrix(1.0,0.0,0.0,1.0,0.0,0.0)"/></marker><marker id="ProcessOnMarker1262" markerUnits="userSpaceOnUse" orient="auto" markerWidth="16.23606797749979" markerHeight="10.550836550532098" viewBox="-1.0 -1.3763819204711736 16.23606797749979 10.550836550532098" refX="-1.0" refY="3.8990363547948754"><path id="ProcessOnPath1263" d="M12.0 3.8990363547948754L0.0 7.798072709589751V0.0Z" stroke="#323232" stroke-width="2.0" fill="#323232" transform="matrix(1.0,0.0,0.0,1.0,0.0,0.0)"/></marker><marker id="ProcessOnMarker1280" markerUnits="userSpaceOnUse" orient="auto" markerWidth="16.23606797749979" markerHeight="10.550836550532098" viewBox="-1.0 -1.3763819204711736 16.23606797749979 10.550836550532098" refX="-1.0" refY="3.8990363547948754"><path id="ProcessOnPath1281" d="M12.0 3.8990363547948754L0.0 7.798072709589751V0.0Z" stroke="#323232" stroke-width="2.0" fill="#323232" transform="matrix(1.0,0.0,0.0,1.0,0.0,0.0)"/></marker><marker id="ProcessOnMarker1299" markerUnits="userSpaceOnUse" orient="auto" markerWidth="16.23606797749979" markerHeight="10.550836550532098" viewBox="-1.0 -1.3763819204711736 16.23606797749979 10.550836550532098" refX="-1.0" refY="3.8990363547948754"><path id="ProcessOnPath1300" d="M12.0 3.8990363547948754L0.0 7.798072709589751V0.0Z" stroke="#323232" stroke-width="2.0" fill="#323232" transform="matrix(1.0,0.0,0.0,1.0,0.0,0.0)"/></marker></defs><g id="ProcessOnG1002"><path id="ProcessOnPath1003" d="M129.5 61.0H1460.0V1899.0H129.5V61.0Z" fill="none"/><g id="ProcessOnG1004"><g id="ProcessOnG1005" transform="matrix(1.0,0.0,0.0,1.0,190.0,81.0)" opacity="1.0"><path id="ProcessOnPath1006" d="M0.0 0.0L250.0 0.0L250.0 1790.0L0.0 1790.0Z" stroke="#cfcfcf" stroke-width="2.0" stroke-dasharray="none" opacity="1.0" fill="none"/><path id="ProcessOnPath1007" d="M0.0 0.0L250.0 0.0L250.0 40.0L0.0 40.0Z" stroke="#cfcfcf" stroke-width="2.0" stroke-dasharray="none" opacity="1.0" fill="#ffffff"/><g id="ProcessOnG1008" transform="matrix(1.0,0.0,0.0,1.0,10.0,10.0)"><text id="ProcessOnText1009" fill="#000000" font-size="16" x="114.0" y="16.4" font-family="微软雅黑" font-weight="normal" font-style="normal" text-decoration="none" family="微软雅黑" text-anchor="middle" size="16">Compiler</text></g></g><g id="ProcessOnG1010" transform="matrix(1.0,0.0,0.0,1.0,690.0,81.0)" opacity="1.0"><path id="ProcessOnPath1011" d="M0.0 0.0L250.0 0.0L250.0 1790.0L0.0 1790.0Z" stroke="#cfcfcf" stroke-width="2.0" stroke-dasharray="none" opacity="1.0" fill="none"/><path id="ProcessOnPath1012" d="M0.0 0.0L250.0 0.0L250.0 40.0L0.0 40.0Z" stroke="#cfcfcf" stroke-width="2.0" stroke-dasharray="none" opacity="1.0" fill="#ffffff"/><g id="ProcessOnG1013" transform="matrix(1.0,0.0,0.0,1.0,10.0,10.0)"><text id="ProcessOnText1014" fill="#000000" font-size="16" x="114.0" y="16.4" font-family="微软雅黑" font-weight="normal" font-style="normal" text-decoration="none" family="微软雅黑" text-anchor="middle" size="16">Compilation</text></g></g><g id="ProcessOnG1015" transform="matrix(1.0,0.0,0.0,1.0,232.75,152.0)" opacity="1.0"><path id="ProcessOnPath1016" d="M0.0 0.0L164.5 0.0L164.5 40.0L0.0 40.0Z" stroke="#323232" stroke-width="2.0" stroke-dasharray="none" opacity="1.0" fill="#ffffff"/><g id="ProcessOnG1017" transform="matrix(1.0,0.0,0.0,1.0,10.0,11.875)"><text id="ProcessOnText1018" fill="#000000" font-size="13" x="71.25" y="13.325" font-family="微软雅黑" font-weight="normal" font-style="normal" text-decoration="none" family="微软雅黑" text-anchor="middle" size="13">run(compiler, callback)</text></g></g><g id="ProcessOnG1019" transform="matrix(1.0,0.0,0.0,1.0,252.0,228.0)" opacity="1.0"><path id="ProcessOnPath1020" d="M0.0 0.0L126.0 0.0L126.0 40.0L0.0 40.0Z" stroke="#323232" stroke-width="2.0" stroke-dasharray="none" opacity="1.0" fill="#ffffff"/><g id="ProcessOnG1021" transform="matrix(1.0,0.0,0.0,1.0,10.0,11.875)"><text id="ProcessOnText1022" fill="#000000" font-size="13" x="52.0" y="13.325" font-family="微软雅黑" font-weight="normal" font-style="normal" text-decoration="none" family="微软雅黑" text-anchor="middle" size="13">compile(params)</text></g></g><g id="ProcessOnG1023" transform="matrix(1.0,0.0,0.0,1.0,217.5,304.0)" opacity="1.0"><path id="ProcessOnPath1024" d="M0.0 0.0L194.875 0.0L194.875 41.0L0.0 41.0Z" stroke="#323232" stroke-width="2.0" stroke-dasharray="none" opacity="1.0" fill="#ffffff"/><g id="ProcessOnG1025" transform="matrix(1.0,0.0,0.0,1.0,10.0,4.25)"><text id="ProcessOnText1026" fill="#000000" font-size="13" x="86.4375" y="13.325" font-family="微软雅黑" font-weight="normal" font-style="normal" text-decoration="none" family="微软雅黑" text-anchor="middle" size="13">compilation</text><text id="ProcessOnText1027" fill="#000000" font-size="13" x="86.4375" y="29.575" font-family="微软雅黑" font-weight="normal" font-style="normal" text-decoration="none" family="微软雅黑" text-anchor="middle" size="13">(compilation, params)</text></g></g><g id="ProcessOnG1028" transform="matrix(1.0,0.0,0.0,1.0,226.5625,378.0)" opacity="1.0"><path id="ProcessOnPath1029" d="M0.0 0.0L176.75 0.0L176.75 40.0L0.0 40.0Z" stroke="#323232" stroke-width="2.0" stroke-dasharray="none" opacity="1.0" fill="#ffffff"/><g id="ProcessOnG1030" transform="matrix(1.0,0.0,0.0,1.0,10.0,3.75)"><text id="ProcessOnText1031" fill="#000000" font-size="13" x="77.375" y="13.325" font-family="微软雅黑" font-weight="normal" font-style="normal" text-decoration="none" family="微软雅黑" text-anchor="middle" size="13">make</text><text id="ProcessOnText1032" fill="#000000" font-size="13" x="77.375" y="29.575" font-family="微软雅黑" font-weight="normal" font-style="normal" text-decoration="none" family="微软雅黑" text-anchor="middle" size="13">(compilation, callback)</text></g></g><g id="ProcessOnG1033" transform="matrix(1.0,0.0,0.0,1.0,704.5,934.0)" opacity="1.0"><path id="ProcessOnPath1034" d="M0.0 0.0L215.0 0.0L215.0 40.0L0.0 40.0Z" stroke="#323232" stroke-width="2.0" stroke-dasharray="none" opacity="1.0" fill="#ffffff"/><g id="ProcessOnG1035" transform="matrix(1.0,0.0,0.0,1.0,10.0,11.875)"><text id="ProcessOnText1036" fill="#000000" font-size="13" x="96.5" y="13.325" font-family="微软雅黑" font-weight="normal" font-style="normal" text-decoration="none" family="微软雅黑" text-anchor="middle" size="13">seal()</text></g></g><g id="ProcessOnG1037" transform="matrix(1.0,0.0,0.0,1.0,704.5,971.6666666666666)" opacity="1.0"><path id="ProcessOnPath1038" d="M0.0 0.0L215.0 0.0L215.0 40.76433121019108L0.0 40.76433121019108Z" stroke="#323232" stroke-width="2.0" stroke-dasharray="none" opacity="1.0" fill="#ffffff"/><g id="ProcessOnG1039" transform="matrix(1.0,0.0,0.0,1.0,10.0,12.25716560509554)"><text id="ProcessOnText1040" fill="#000000" font-size="13" x="96.5" y="13.325" font-family="微软雅黑" font-weight="normal" font-style="normal" text-decoration="none" family="微软雅黑" text-anchor="middle" size="13">optimize()</text></g></g><g id="ProcessOnG1041" transform="matrix(1.0,0.0,0.0,1.0,704.5,1009.3736730360934)" opacity="1.0"><path id="ProcessOnPath1042" d="M0.0 0.0L215.0 0.0L215.0 40.76433121019108L0.0 40.76433121019108Z" stroke="#323232" stroke-width="2.0" stroke-dasharray="none" opacity="1.0" fill="#ffffff"/><g id="ProcessOnG1043" transform="matrix(1.0,0.0,0.0,1.0,10.0,12.25716560509554)"><text id="ProcessOnText1044" fill="#000000" font-size="13" x="96.5" y="13.325" font-family="微软雅黑" font-weight="normal" font-style="normal" text-decoration="none" family="微软雅黑" text-anchor="middle" size="13">...</text></g></g><g id="ProcessOnG1045" transform="matrix(1.0,0.0,0.0,1.0,727.0,1285.0)" opacity="1.0"><path id="ProcessOnPath1046" d="M0.0 0.0L170.0 0.0L170.0 40.0L0.0 40.0Z" stroke="#323232" stroke-width="2.0" stroke-dasharray="none" opacity="1.0" fill="#ffffff"/><g id="ProcessOnG1047" transform="matrix(1.0,0.0,0.0,1.0,10.0,11.875)"><text id="ProcessOnText1048" fill="#000000" font-size="13" x="74.0" y="13.325" font-family="微软雅黑" font-weight="normal" font-style="normal" text-decoration="none" family="微软雅黑" text-anchor="middle" size="13">before-chunk-assets()</text></g></g><g id="ProcessOnG1049" transform="matrix(1.0,0.0,0.0,1.0,940.0,81.0)" opacity="1.0"><path id="ProcessOnPath1050" d="M0.0 0.0L250.0 0.0L250.0 1790.0L0.0 1790.0Z" stroke="#cfcfcf" stroke-width="2.0" stroke-dasharray="none" opacity="1.0" fill="none"/><path id="ProcessOnPath1051" d="M0.0 0.0L250.0 0.0L250.0 40.0L0.0 40.0Z" stroke="#cfcfcf" stroke-width="2.0" stroke-dasharray="none" opacity="1.0" fill="#ffffff"/><g id="ProcessOnG1052" transform="matrix(1.0,0.0,0.0,1.0,10.0,10.0)"><text id="ProcessOnText1053" fill="#000000" font-size="16" x="114.0" y="16.4" font-family="微软雅黑" font-weight="normal" font-style="normal" text-decoration="none" family="微软雅黑" text-anchor="middle" size="16">Parser</text></g></g><g id="ProcessOnG1054" transform="matrix(1.0,0.0,0.0,1.0,735.75,498.0)" opacity="1.0"><path id="ProcessOnPath1055" d="M0.0 0.0L158.5 0.0L158.5 40.0L0.0 40.0Z" stroke="#323232" stroke-width="2.0" stroke-dasharray="none" opacity="1.0" fill="#ffffff"/><g id="ProcessOnG1056" transform="matrix(1.0,0.0,0.0,1.0,10.0,11.875)"><text id="ProcessOnText1057" fill="#000000" font-size="13" x="68.25" y="13.325" font-family="微软雅黑" font-weight="normal" font-style="normal" text-decoration="none" family="微软雅黑" text-anchor="middle" size="13">build-module(module)</text></g></g><g id="ProcessOnG1058" transform="matrix(1.0,0.0,0.0,1.0,217.5,1724.0)" opacity="1.0"><path id="ProcessOnPath1059" d="M0.0 0.0L183.0 0.0L183.0 40.0L0.0 40.0Z" stroke="#323232" stroke-width="2.0" stroke-dasharray="none" opacity="1.0" fill="#ffffff"/><g id="ProcessOnG1060" transform="matrix(1.0,0.0,0.0,1.0,10.0,3.75)"><text id="ProcessOnText1061" fill="#000000" font-size="13" x="80.5" y="13.325" font-family="微软雅黑" font-weight="normal" font-style="normal" text-decoration="none" family="微软雅黑" text-anchor="middle" size="13">emit</text><text id="ProcessOnText1062" fill="#000000" font-size="13" x="80.5" y="29.575" font-family="微软雅黑" font-weight="normal" font-style="normal" text-decoration="none" family="微软雅黑" text-anchor="middle" size="13">(compilation, callback)</text></g></g><g id="ProcessOnG1063" transform="matrix(1.0,0.0,0.0,1.0,241.5,1799.0)" opacity="1.0"><path id="ProcessOnPath1064" d="M0.0 0.0L135.0 0.0L135.0 40.0L0.0 40.0Z" stroke="#323232" stroke-width="2.0" stroke-dasharray="none" opacity="1.0" fill="#ffffff"/><g id="ProcessOnG1065" transform="matrix(1.0,0.0,0.0,1.0,10.0,11.875)"><text id="ProcessOnText1066" fill="#000000" font-size="13" x="56.5" y="13.325" font-family="微软雅黑" font-weight="normal" font-style="normal" text-decoration="none" family="微软雅黑" text-anchor="middle" size="13">done(stats)</text></g></g><g id="ProcessOnG1067" transform="matrix(1.0,0.0,0.0,1.0,714.5,1532.0)" opacity="1.0"><path id="ProcessOnPath1068" d="M0.0 0.0L195.0 0.0L195.0 40.0L0.0 40.0Z" stroke="#323232" stroke-width="2.0" stroke-dasharray="none" opacity="1.0" fill="#ffffff"/><g id="ProcessOnG1069" transform="matrix(1.0,0.0,0.0,1.0,10.0,11.875)"><text id="ProcessOnText1070" fill="#000000" font-size="13" x="86.5" y="13.325" font-family="微软雅黑" font-weight="normal" font-style="normal" text-decoration="none" family="微软雅黑" text-anchor="middle" size="13">additional-assets(callback)</text></g></g><g id="ProcessOnG1071" transform="matrix(1.0,0.0,0.0,1.0,738.75,1724.0)" opacity="1.0"><path id="ProcessOnPath1072" d="M0.0 0.0L146.5 0.0L146.5 40.0L0.0 40.0Z" stroke="#323232" stroke-width="2.0" stroke-dasharray="none" opacity="1.0" fill="#ffffff"/><g id="ProcessOnG1073" transform="matrix(1.0,0.0,0.0,1.0,10.0,11.875)"><text id="ProcessOnText1074" fill="#000000" font-size="13" x="62.25" y="13.325" font-family="微软雅黑" font-weight="normal" font-style="normal" text-decoration="none" family="微软雅黑" text-anchor="middle" size="13">after-seal(callback)</text></g></g><g id="ProcessOnG1075" transform="matrix(1.0,0.0,0.0,1.0,709.0,579.0)" opacity="1.0"><path id="ProcessOnPath1076" d="M0.0 0.0L210.5 0.0L210.5 40.0L0.0 40.0Z" stroke="#323232" stroke-width="2.0" stroke-dasharray="none" opacity="1.0" fill="#ffffff"/><g id="ProcessOnG1077" transform="matrix(1.0,0.0,0.0,1.0,10.0,3.75)"><text id="ProcessOnText1078" fill="#000000" font-size="13" x="94.25" y="13.325" font-family="微软雅黑" font-weight="normal" font-style="normal" text-decoration="none" family="微软雅黑" text-anchor="middle" size="13">normal-module-loader</text><text id="ProcessOnText1079" fill="#000000" font-size="13" x="94.25" y="29.575" font-family="微软雅黑" font-weight="normal" font-style="normal" text-decoration="none" family="微软雅黑" text-anchor="middle" size="13">(loaderContext, module)</text></g></g><g id="ProcessOnG1080" transform="matrix(1.0,0.0,0.0,1.0,988.5,579.0)" opacity="1.0"><path id="ProcessOnPath1081" d="M0.0 0.0L135.0 0.0L135.0 40.0L0.0 40.0Z" stroke="#323232" stroke-width="2.0" stroke-dasharray="none" opacity="1.0" fill="#ffffff"/><g id="ProcessOnG1082" transform="matrix(1.0,0.0,0.0,1.0,10.0,3.75)"><text id="ProcessOnText1083" fill="#000000" font-size="13" x="56.5" y="13.325" font-family="微软雅黑" font-weight="normal" font-style="normal" text-decoration="none" family="微软雅黑" text-anchor="middle" size="13">program</text><text id="ProcessOnText1084" fill="#000000" font-size="13" x="56.5" y="29.575" font-family="微软雅黑" font-weight="normal" font-style="normal" text-decoration="none" family="微软雅黑" text-anchor="middle" size="13">(ast, comment)</text></g></g><g id="ProcessOnG1085" transform="matrix(1.0,0.0,0.0,1.0,972.125,671.0)" opacity="1.0"><path id="ProcessOnPath1086" d="M0.0 0.0L167.75 0.0L167.75 40.0L0.0 40.0Z" stroke="#323232" stroke-width="2.0" stroke-dasharray="none" opacity="1.0" fill="#ffffff"/><g id="ProcessOnG1087" transform="matrix(1.0,0.0,0.0,1.0,10.0,11.875)"><text id="ProcessOnText1088" fill="#000000" font-size="13" x="72.875" y="13.325" font-family="微软雅黑" font-weight="normal" font-style="normal" text-decoration="none" family="微软雅黑" text-anchor="middle" size="13">statement(statement)</text></g></g><g id="ProcessOnG1089" transform="matrix(1.0,0.0,0.0,1.0,972.125,711.0)" opacity="1.0"><path id="ProcessOnPath1090" d="M0.0 0.0L167.75 0.0L167.75 40.0L0.0 40.0Z" stroke="#323232" stroke-width="2.0" stroke-dasharray="none" opacity="1.0" fill="#ffffff"/><g id="ProcessOnG1091" transform="matrix(1.0,0.0,0.0,1.0,10.0,3.75)"><text id="ProcessOnText1092" fill="#000000" font-size="13" x="72.875" y="13.325" font-family="微软雅黑" font-weight="normal" font-style="normal" text-decoration="none" family="微软雅黑" text-anchor="middle" size="13">call &lt;identifier&gt;</text><text id="ProcessOnText1093" fill="#000000" font-size="13" x="72.875" y="29.575" font-family="微软雅黑" font-weight="normal" font-style="normal" text-decoration="none" family="微软雅黑" text-anchor="middle" size="13">(expression)</text></g></g><g id="ProcessOnG1094" transform="matrix(1.0,0.0,0.0,1.0,972.125,751.0)" opacity="1.0"><path id="ProcessOnPath1095" d="M0.0 0.0L167.75 0.0L167.75 40.0L0.0 40.0Z" stroke="#323232" stroke-width="2.0" stroke-dasharray="none" opacity="1.0" fill="#ffffff"/><g id="ProcessOnG1096" transform="matrix(1.0,0.0,0.0,1.0,10.0,11.875)"><text id="ProcessOnText1097" fill="#000000" font-size="13" x="72.875" y="13.325" font-family="微软雅黑" font-weight="normal" font-style="normal" text-decoration="none" family="微软雅黑" text-anchor="middle" size="13">...</text></g></g><g id="ProcessOnG1098" transform="matrix(1.0,0.0,0.0,1.0,972.125,791.0)" opacity="1.0"><path id="ProcessOnPath1099" d="M0.0 0.0L167.75 0.0L167.75 40.0L0.0 40.0Z" stroke="#323232" stroke-width="2.0" stroke-dasharray="none" opacity="1.0" fill="#ffffff"/><g id="ProcessOnG1100" transform="matrix(1.0,0.0,0.0,1.0,10.0,3.75)"><text id="ProcessOnText1101" fill="#000000" font-size="13" x="72.875" y="13.325" font-family="微软雅黑" font-weight="normal" font-style="normal" text-decoration="none" family="微软雅黑" text-anchor="middle" size="13">expression &lt;identifier&gt;</text><text id="ProcessOnText1102" fill="#000000" font-size="13" x="72.875" y="29.575" font-family="微软雅黑" font-weight="normal" font-style="normal" text-decoration="none" family="微软雅黑" text-anchor="middle" size="13">(expression)</text></g></g><g id="ProcessOnG1103" transform="matrix(1.0,0.0,0.0,1.0,723.5,791.0)" opacity="1.0"><path id="ProcessOnPath1104" d="M0.0 0.0L177.0 0.0L177.0 40.0L0.0 40.0Z" stroke="#323232" stroke-width="2.0" stroke-dasharray="none" opacity="1.0" fill="#ffffff"/><g id="ProcessOnG1105" transform="matrix(1.0,0.0,0.0,1.0,10.0,3.75)"><text id="ProcessOnText1106" fill="#000000" font-size="13" x="77.5" y="13.325" font-family="微软雅黑" font-weight="normal" font-style="normal" text-decoration="none" family="微软雅黑" text-anchor="middle" size="13">succeed-module</text><text id="ProcessOnText1107" fill="#000000" font-size="13" x="77.5" y="29.575" font-family="微软雅黑" font-weight="normal" font-style="normal" text-decoration="none" family="微软雅黑" text-anchor="middle" size="13">(module)</text></g></g><g id="ProcessOnG1108" transform="matrix(1.0,0.0,0.0,1.0,726.5,862.0)" opacity="1.0"><path id="ProcessOnPath1109" d="M0.0 0.0L171.0 0.0L171.0 40.0L0.0 40.0Z" stroke="#323232" stroke-width="2.0" stroke-dasharray="none" opacity="1.0" fill="#ffffff"/><g id="ProcessOnG1110" transform="matrix(1.0,0.0,0.0,1.0,10.0,3.75)"><text id="ProcessOnText1111" fill="#000000" font-size="13" x="74.5" y="13.325" font-family="微软雅黑" font-weight="normal" font-style="normal" text-decoration="none" family="微软雅黑" text-anchor="middle" size="13">finish-modules</text><text id="ProcessOnText1112" fill="#000000" font-size="13" x="74.5" y="29.575" font-family="微软雅黑" font-weight="normal" font-style="normal" text-decoration="none" family="微软雅黑" text-anchor="middle" size="13">(modules)</text></g></g><g id="ProcessOnG1113" transform="matrix(1.0,0.0,0.0,1.0,1190.0,81.0)" opacity="1.0"><path id="ProcessOnPath1114" d="M0.0 0.0L250.0 0.0L250.0 1790.0L0.0 1790.0Z" stroke="#cfcfcf" stroke-width="2.0" stroke-dasharray="none" opacity="1.0" fill="none"/><path id="ProcessOnPath1115" d="M0.0 0.0L250.0 0.0L250.0 40.0L0.0 40.0Z" stroke="#cfcfcf" stroke-width="2.0" stroke-dasharray="none" opacity="1.0" fill="#ffffff"/><g id="ProcessOnG1116" transform="matrix(1.0,0.0,0.0,1.0,10.0,10.0)"><text id="ProcessOnText1117" fill="#000000" font-size="16" x="114.0" y="16.4" font-family="微软雅黑" font-weight="normal" font-style="normal" text-decoration="none" family="微软雅黑" text-anchor="middle" size="16">MainTemplate</text></g></g><g id="ProcessOnG1118" transform="matrix(1.0,0.0,0.0,1.0,704.5,1129.2356687898089)" opacity="1.0"><path id="ProcessOnPath1119" d="M0.0 0.0L215.0 0.0L215.0 40.76433121019108L0.0 40.76433121019108Z" stroke="#323232" stroke-width="2.0" stroke-dasharray="none" opacity="1.0" fill="#ffffff"/><g id="ProcessOnG1120" transform="matrix(1.0,0.0,0.0,1.0,10.0,12.25716560509554)"><text id="ProcessOnText1121" fill="#000000" font-size="13" x="96.5" y="13.325" font-family="微软雅黑" font-weight="normal" font-style="normal" text-decoration="none" family="微软雅黑" text-anchor="middle" size="13">before-hash()</text></g></g><g id="ProcessOnG1122" transform="matrix(1.0,0.0,0.0,1.0,744.5,1209.0)" opacity="1.0"><path id="ProcessOnPath1123" d="M0.0 0.0L135.0 0.0L135.0 40.0L0.0 40.0Z" stroke="#323232" stroke-width="2.0" stroke-dasharray="none" opacity="1.0" fill="#ffffff"/><g id="ProcessOnG1124" transform="matrix(1.0,0.0,0.0,1.0,10.0,11.875)"><text id="ProcessOnText1125" fill="#000000" font-size="13" x="56.5" y="13.325" font-family="微软雅黑" font-weight="normal" font-style="normal" text-decoration="none" family="微软雅黑" text-anchor="middle" size="13">after-hash()</text></g></g><g id="ProcessOnG1126" transform="matrix(1.0,0.0,0.0,1.0,1247.5,1130.0)" opacity="1.0"><path id="ProcessOnPath1127" d="M0.0 0.0L135.0 0.0L135.0 40.0L0.0 40.0Z" stroke="#323232" stroke-width="2.0" stroke-dasharray="none" opacity="1.0" fill="#ffffff"/><g id="ProcessOnG1128" transform="matrix(1.0,0.0,0.0,1.0,10.0,11.875)"><text id="ProcessOnText1129" fill="#000000" font-size="13" x="56.5" y="13.325" font-family="微软雅黑" font-weight="normal" font-style="normal" text-decoration="none" family="微软雅黑" text-anchor="middle" size="13">hash(hash)</text></g></g><g id="ProcessOnG1130" transform="matrix(1.0,0.0,0.0,1.0,727.0,1459.0)" opacity="1.0"><path id="ProcessOnPath1131" d="M0.0 0.0L170.0 0.0L170.0 40.0L0.0 40.0Z" stroke="#323232" stroke-width="2.0" stroke-dasharray="none" opacity="1.0" fill="#ffffff"/><g id="ProcessOnG1132" transform="matrix(1.0,0.0,0.0,1.0,10.0,11.875)"><text id="ProcessOnText1133" fill="#000000" font-size="13" x="74.0" y="13.325" font-family="微软雅黑" font-weight="normal" font-style="normal" text-decoration="none" family="微软雅黑" text-anchor="middle" size="13">chunk-asset(chunk, file)</text></g></g><g id="ProcessOnG1134" transform="matrix(1.0,0.0,0.0,1.0,1247.5,1339.0)" opacity="1.0"><path id="ProcessOnPath1135" d="M0.0 0.0L135.0 0.0L135.0 40.0L0.0 40.0Z" stroke="#323232" stroke-width="2.0" stroke-dasharray="none" opacity="1.0" fill="#ffffff"/><g id="ProcessOnG1136" transform="matrix(1.0,0.0,0.0,1.0,10.0,11.875)"><text id="ProcessOnText1137" fill="#000000" font-size="13" x="56.5" y="13.325" font-family="微软雅黑" font-weight="normal" font-style="normal" text-decoration="none" family="微软雅黑" text-anchor="middle" size="13">bootstrap</text></g></g><g id="ProcessOnG1138" transform="matrix(1.0,0.0,0.0,1.0,1247.5,1379.0)" opacity="1.0"><path id="ProcessOnPath1139" d="M0.0 0.0L135.0 0.0L135.0 40.0L0.0 40.0Z" stroke="#323232" stroke-width="2.0" stroke-dasharray="none" opacity="1.0" fill="#ffffff"/><g id="ProcessOnG1140" transform="matrix(1.0,0.0,0.0,1.0,10.0,11.875)"><text id="ProcessOnText1141" fill="#000000" font-size="13" x="56.5" y="13.325" font-family="微软雅黑" font-weight="normal" font-style="normal" text-decoration="none" family="微软雅黑" text-anchor="middle" size="13">local-vars</text></g></g><g id="ProcessOnG1142" transform="matrix(1.0,0.0,0.0,1.0,1247.5,1419.0)" opacity="1.0"><path id="ProcessOnPath1143" d="M0.0 0.0L135.0 0.0L135.0 40.0L0.0 40.0Z" stroke="#323232" stroke-width="2.0" stroke-dasharray="none" opacity="1.0" fill="#ffffff"/><g id="ProcessOnG1144" transform="matrix(1.0,0.0,0.0,1.0,10.0,11.875)"><text id="ProcessOnText1145" fill="#000000" font-size="13" x="56.5" y="13.325" font-family="微软雅黑" font-weight="normal" font-style="normal" text-decoration="none" family="微软雅黑" text-anchor="middle" size="13">...</text></g></g><g id="ProcessOnG1146" transform="matrix(1.0,0.0,0.0,1.0,1247.5,1459.0)" opacity="1.0"><path id="ProcessOnPath1147" d="M0.0 0.0L135.0 0.0L135.0 40.0L0.0 40.0Z" stroke="#323232" stroke-width="2.0" stroke-dasharray="none" opacity="1.0" fill="#ffffff"/><g id="ProcessOnG1148" transform="matrix(1.0,0.0,0.0,1.0,10.0,11.875)"><text id="ProcessOnText1149" fill="#000000" font-size="13" x="56.5" y="13.325" font-family="微软雅黑" font-weight="normal" font-style="normal" text-decoration="none" family="微软雅黑" text-anchor="middle" size="13">render</text></g></g><g id="ProcessOnG1150"><path id="ProcessOnPath1151" d="M315.0 192.0L315.0 210.0L315.0 210.0L315.0 212.7639320225002" stroke="#323232" stroke-width="2.0" stroke-dasharray="none" fill="none" marker-end="url(#ProcessOnMarker1152)"/></g><g id="ProcessOnG1154"><path id="ProcessOnPath1155" d="M315.0 268.0L315.0 286.0L314.9375 286.0L314.9375 288.7639320225002" stroke="#323232" stroke-width="2.0" stroke-dasharray="none" fill="none" marker-end="url(#ProcessOnMarker1156)"/></g><g id="ProcessOnG1158"><path id="ProcessOnPath1159" d="M314.9375 345.0L314.9375 361.5L314.9375 361.5L314.9375 362.7639320225002" stroke="#323232" stroke-width="2.0" stroke-dasharray="none" fill="none" marker-end="url(#ProcessOnMarker1160)"/></g><g id="ProcessOnG1162"><path id="ProcessOnPath1163" d="M919.5 599.0L954.0 599.0L954.0 599.0L973.2639320225002 599.0" stroke="#323232" stroke-width="2.0" stroke-dasharray="none" fill="none" marker-end="url(#ProcessOnMarker1164)"/></g><g id="ProcessOnG1166"><path id="ProcessOnPath1167" d="M1056.0 619.0L1056.0 645.0L1056.0 645.0L1056.0 655.7639320225002" stroke="#323232" stroke-width="2.0" stroke-dasharray="none" fill="none" marker-end="url(#ProcessOnMarker1168)"/></g><g id="ProcessOnG1170"><path id="ProcessOnPath1171" d="M1139.875 811.0L1169.875 811.0L1169.875 691.0L1155.1110679774997 691.0" stroke="#323232" stroke-width="2.0" stroke-dasharray="2.0 3.0" fill="none" marker-end="url(#ProcessOnMarker1172)"/></g><g id="ProcessOnG1174"><path id="ProcessOnPath1175" d="M972.125 811.0L936.3125 811.0L936.3125 811.0L915.7360679774998 811.0" stroke="#323232" stroke-width="2.0" stroke-dasharray="none" fill="none" marker-end="url(#ProcessOnMarker1176)"/></g><g id="ProcessOnG1178"><path id="ProcessOnPath1179" d="M812.0 902.0L812.0 918.0L812.0 918.0L812.0 918.7639320225002" stroke="#323232" stroke-width="2.0" stroke-dasharray="none" fill="none" marker-end="url(#ProcessOnMarker1180)"/></g><g id="ProcessOnG1182"><path id="ProcessOnPath1183" d="M919.5 1149.6178343949043L1083.5 1149.6178343949043L1083.5 1150.0L1232.2639320225003 1150.0" stroke="#323232" stroke-width="2.0" stroke-dasharray="none" fill="none" marker-end="url(#ProcessOnMarker1184)"/></g><g id="ProcessOnG1186"><path id="ProcessOnPath1187" d="M1315.0 1170.0L1315.0 1229.0L894.7360679774998 1229.0" stroke="#323232" stroke-width="2.0" stroke-dasharray="none" fill="none" marker-end="url(#ProcessOnMarker1188)"/></g><g id="ProcessOnG1190"><path id="ProcessOnPath1191" d="M812.0 1249.0L812.0 1267.0L812.0 1267.0L812.0 1269.7639320225003" stroke="#323232" stroke-width="2.0" stroke-dasharray="none" fill="none" marker-end="url(#ProcessOnMarker1192)"/></g><g id="ProcessOnG1194"><path id="ProcessOnPath1195" d="M897.0 1305.0L1315.0 1305.0L1315.0 1323.7639320225003" stroke="#323232" stroke-width="2.0" stroke-dasharray="none" fill="none" marker-end="url(#ProcessOnMarker1196)"/></g><g id="ProcessOnG1198"><path id="ProcessOnPath1199" d="M1247.5 1479.0L1072.25 1479.0L1072.25 1479.0L912.2360679774998 1479.0" stroke="#323232" stroke-width="2.0" stroke-dasharray="none" fill="none" marker-end="url(#ProcessOnMarker1200)"/></g><g id="ProcessOnG1202"><path id="ProcessOnPath1203" d="M812.0 1499.0L812.0 1515.5L812.0 1515.5L812.0 1516.7639320225003" stroke="#323232" stroke-width="2.0" stroke-dasharray="none" fill="none" marker-end="url(#ProcessOnMarker1204)"/></g><g id="ProcessOnG1206"><path id="ProcessOnPath1207" d="M738.75 1744.0L569.625 1744.0L569.625 1744.0L415.7360679774998 1744.0" stroke="#323232" stroke-width="2.0" stroke-dasharray="none" fill="none" marker-end="url(#ProcessOnMarker1208)"/></g><g id="ProcessOnG1210"><path id="ProcessOnPath1211" d="M309.0 1764.0L309.0 1781.5L309.0 1781.5L309.0 1783.7639320225003" stroke="#323232" stroke-width="2.0" stroke-dasharray="none" fill="none" marker-end="url(#ProcessOnMarker1212)"/></g><g id="ProcessOnG1214" transform="matrix(1.0,0.0,0.0,1.0,704.5,1050.1380042462845)" opacity="1.0"><path id="ProcessOnPath1215" d="M0.0 0.0L215.0 0.0L215.0 40.76433121019108L0.0 40.76433121019108Z" stroke="#323232" stroke-width="2.0" stroke-dasharray="none" opacity="1.0" fill="#ffffff"/><g id="ProcessOnG1216" transform="matrix(1.0,0.0,0.0,1.0,10.0,4.13216560509554)"><text id="ProcessOnText1217" fill="#000000" font-size="13" x="96.5" y="13.325" font-family="微软雅黑" font-weight="normal" font-style="normal" text-decoration="none" family="微软雅黑" text-anchor="middle" size="13">record-chunks(chunks, records</text><text id="ProcessOnText1218" fill="#000000" font-size="13" x="96.5" y="29.575" font-family="微软雅黑" font-weight="normal" font-style="normal" text-decoration="none" family="微软雅黑" text-anchor="middle" size="13">)</text></g></g><g id="ProcessOnG1219" transform="matrix(1.0,0.0,0.0,1.0,440.0,81.0)" opacity="1.0"><path id="ProcessOnPath1220" d="M0.0 0.0L250.0 0.0L250.0 1790.0L0.0 1790.0Z" stroke="#cfcfcf" stroke-width="2.0" stroke-dasharray="none" opacity="1.0" fill="none"/><path id="ProcessOnPath1221" d="M0.0 0.0L250.0 0.0L250.0 40.0L0.0 40.0Z" stroke="#cfcfcf" stroke-width="2.0" stroke-dasharray="none" opacity="1.0" fill="#ffffff"/><g id="ProcessOnG1222" transform="matrix(1.0,0.0,0.0,1.0,10.0,10.0)"><text id="ProcessOnText1223" fill="#000000" font-size="16" x="114.0" y="16.4" font-family="微软雅黑" font-weight="normal" font-style="normal" text-decoration="none" family="微软雅黑" text-anchor="middle" size="16">NormalModuleFactory</text></g></g><g id="ProcessOnG1224" transform="matrix(1.0,0.0,0.0,1.0,463.625,378.0)" opacity="1.0"><path id="ProcessOnPath1225" d="M0.0 0.0L202.75 0.0L202.75 40.0L0.0 40.0Z" stroke="#323232" stroke-width="2.0" stroke-dasharray="none" opacity="1.0" fill="#ffffff"/><g id="ProcessOnG1226" transform="matrix(1.0,0.0,0.0,1.0,10.0,11.875)"><text id="ProcessOnText1227" fill="#000000" font-size="13" x="90.375" y="13.325" font-family="微软雅黑" font-weight="normal" font-style="normal" text-decoration="none" family="微软雅黑" text-anchor="middle" size="13">before-resolve(data, callback)</text></g></g><g id="ProcessOnG1228" transform="matrix(1.0,0.0,0.0,1.0,463.625,418.0)" opacity="1.0"><path id="ProcessOnPath1229" d="M0.0 0.0L202.75 0.0L202.75 40.0L0.0 40.0Z" stroke="#323232" stroke-width="2.0" stroke-dasharray="none" opacity="1.0" fill="#ffffff"/><g id="ProcessOnG1230" transform="matrix(1.0,0.0,0.0,1.0,10.0,11.875)"><text id="ProcessOnText1231" fill="#000000" font-size="13" x="90.375" y="13.325" font-family="微软雅黑" font-weight="normal" font-style="normal" text-decoration="none" family="微软雅黑" text-anchor="middle" size="13">...</text></g></g><g id="ProcessOnG1232" transform="matrix(1.0,0.0,0.0,1.0,463.625,458.0)" opacity="1.0"><path id="ProcessOnPath1233" d="M0.0 0.0L202.75 0.0L202.75 40.0L0.0 40.0Z" stroke="#323232" stroke-width="2.0" stroke-dasharray="none" opacity="1.0" fill="#ffffff"/><g id="ProcessOnG1234" transform="matrix(1.0,0.0,0.0,1.0,10.0,11.875)"><text id="ProcessOnText1235" fill="#000000" font-size="13" x="90.375" y="13.325" font-family="微软雅黑" font-weight="normal" font-style="normal" text-decoration="none" family="微软雅黑" text-anchor="middle" size="13">after-resolve(data, callback)</text></g></g><g id="ProcessOnG1236" transform="matrix(1.0,0.0,0.0,1.0,463.625,498.0)" opacity="1.0"><path id="ProcessOnPath1237" d="M0.0 0.0L202.75 0.0L202.75 40.0L0.0 40.0Z" stroke="#323232" stroke-width="2.0" stroke-dasharray="none" opacity="1.0" fill="#ffffff"/><g id="ProcessOnG1238" transform="matrix(1.0,0.0,0.0,1.0,10.0,11.875)"><text id="ProcessOnText1239" fill="#000000" font-size="13" x="90.375" y="13.325" font-family="微软雅黑" font-weight="normal" font-style="normal" text-decoration="none" family="微软雅黑" text-anchor="middle" size="13">module(module)</text></g></g><g id="ProcessOnG1240"><path id="ProcessOnPath1241" d="M403.3125 398.0L433.46875 398.0L433.46875 398.0L448.3889320225002 398.0" stroke="#323232" stroke-width="2.0" stroke-dasharray="none" fill="none" marker-end="url(#ProcessOnMarker1242)"/></g><g id="ProcessOnG1244"><path id="ProcessOnPath1245" d="M666.375 518.0L701.0625 518.0L701.0625 518.0L720.5139320225002 518.0" stroke="#323232" stroke-width="2.0" stroke-dasharray="none" fill="none" marker-end="url(#ProcessOnMarker1246)"/></g><g id="ProcessOnG1248"><path id="ProcessOnPath1249" d="M812.0 831.0L812.0 846.5L812.0 846.5L812.0 846.7639320225002" stroke="#323232" stroke-width="2.0" stroke-dasharray="none" fill="none" marker-end="url(#ProcessOnMarker1250)"/></g><g id="ProcessOnG1252"><path id="ProcessOnPath1253" d="M723.5 811.0L426.3759259259259 811.0L426.3759259259259 409.0L449.13985794842614 409.0" stroke="#323232" stroke-width="2.0" stroke-dasharray="2.0 3.0" fill="none" marker-end="url(#ProcessOnMarker1254)"/></g><g id="ProcessOnG1256"><path id="ProcessOnPath1257" d="M815.0 538.0L815.0 558.5L814.25 558.5L814.25 563.7639320225002" stroke="#323232" stroke-width="2.0" stroke-dasharray="none" fill="none" marker-end="url(#ProcessOnMarker1258)"/></g><g id="ProcessOnG1260"><path id="ProcessOnPath1261" d="M812.0 1459.0L812.0 1359.0L1232.2639320225003 1359.0" stroke="#323232" stroke-width="2.0" stroke-dasharray="2.0 3.0" fill="none" marker-end="url(#ProcessOnMarker1262)"/></g><g id="ProcessOnG1264" transform="matrix(1.0,0.0,0.0,1.0,714.5,1572.0)" opacity="1.0"><path id="ProcessOnPath1265" d="M0.0 0.0L195.0 0.0L195.0 40.0L0.0 40.0Z" stroke="#323232" stroke-width="2.0" stroke-dasharray="none" opacity="1.0" fill="#ffffff"/><g id="ProcessOnG1266" transform="matrix(1.0,0.0,0.0,1.0,10.0,3.75)"><text id="ProcessOnText1267" fill="#000000" font-size="13" x="86.5" y="13.325" font-family="微软雅黑" font-weight="normal" font-style="normal" text-decoration="none" family="微软雅黑" text-anchor="middle" size="13">optimize-chunk-assets</text><text id="ProcessOnText1268" fill="#000000" font-size="13" x="86.5" y="29.575" font-family="微软雅黑" font-weight="normal" font-style="normal" text-decoration="none" family="微软雅黑" text-anchor="middle" size="13">(chunks, callback)</text></g></g><g id="ProcessOnG1269" transform="matrix(1.0,0.0,0.0,1.0,714.5,1612.0)" opacity="1.0"><path id="ProcessOnPath1270" d="M0.0 0.0L195.0 0.0L195.0 40.0L0.0 40.0Z" stroke="#323232" stroke-width="2.0" stroke-dasharray="none" opacity="1.0" fill="#ffffff"/><g id="ProcessOnG1271" transform="matrix(1.0,0.0,0.0,1.0,10.0,11.875)"><text id="ProcessOnText1272" fill="#000000" font-size="13" x="86.5" y="13.325" font-family="微软雅黑" font-weight="normal" font-style="normal" text-decoration="none" family="微软雅黑" text-anchor="middle" size="13">...</text></g></g><g id="ProcessOnG1273" transform="matrix(1.0,0.0,0.0,1.0,714.5,1652.0)" opacity="1.0"><path id="ProcessOnPath1274" d="M0.0 0.0L195.0 0.0L195.0 40.0L0.0 40.0Z" stroke="#323232" stroke-width="2.0" stroke-dasharray="none" opacity="1.0" fill="#ffffff"/><g id="ProcessOnG1275" transform="matrix(1.0,0.0,0.0,1.0,10.0,3.75)"><text id="ProcessOnText1276" fill="#000000" font-size="13" x="86.5" y="13.325" font-family="微软雅黑" font-weight="normal" font-style="normal" text-decoration="none" family="微软雅黑" text-anchor="middle" size="13">after-optimize-assets</text><text id="ProcessOnText1277" fill="#000000" font-size="13" x="86.5" y="29.575" font-family="微软雅黑" font-weight="normal" font-style="normal" text-decoration="none" family="微软雅黑" text-anchor="middle" size="13">(assets)</text></g></g><g id="ProcessOnG1278"><path id="ProcessOnPath1279" d="M812.0 1692.0L812.0 1708.0L812.0 1708.0L812.0 1708.7639320225003" stroke="#323232" stroke-width="2.0" stroke-dasharray="none" fill="none" marker-end="url(#ProcessOnMarker1280)"/></g><g id="ProcessOnG1282" transform="matrix(1.0,0.0,0.0,1.0,149.5,121.0)" opacity="1.0"><path id="ProcessOnPath1283" d="M0.0 0.0L1290.5 0.0L1290.5 236.0L0.0 236.0Z" stroke="#cfcfcf" stroke-width="2.0" stroke-dasharray="none" opacity="1.0" fill="none"/><path id="ProcessOnPath1284" d="M0.0 0.0L40.0 0.0L40.0 236.0L0.0 236.0Z" stroke="#cfcfcf" stroke-width="2.0" stroke-dasharray="none" opacity="1.0" fill="#ffffff"/><g id="ProcessOnG1285" transform="matrix(0.0,-1.0,1.0,0.0,10.0,224.0)"><text id="ProcessOnText1286" fill="#000000" font-size="16" x="107.0" y="16.4" font-family="微软雅黑" font-weight="normal" font-style="normal" text-decoration="none" family="微软雅黑" text-anchor="middle" size="16">stage 1</text></g></g><g id="ProcessOnG1287" transform="matrix(1.0,0.0,0.0,1.0,149.5,357.0)" opacity="1.0"><path id="ProcessOnPath1288" d="M0.0 0.0L1290.5 0.0L1290.5 748.0L0.0 748.0Z" stroke="#cfcfcf" stroke-width="2.0" stroke-dasharray="none" opacity="1.0" fill="none"/><path id="ProcessOnPath1289" d="M0.0 0.0L40.0 0.0L40.0 748.0L0.0 748.0Z" stroke="#cfcfcf" stroke-width="2.0" stroke-dasharray="none" opacity="1.0" fill="#ffffff"/><g id="ProcessOnG1290" transform="matrix(0.0,-1.0,1.0,0.0,10.0,736.0)"><text id="ProcessOnText1291" fill="#000000" font-size="16" x="363.0" y="16.4" font-family="微软雅黑" font-weight="normal" font-style="normal" text-decoration="none" family="微软雅黑" text-anchor="middle" size="16">stage 2</text></g></g><g id="ProcessOnG1292" transform="matrix(1.0,0.0,0.0,1.0,149.5,1105.0)" opacity="1.0"><path id="ProcessOnPath1293" d="M0.0 0.0L1290.5 0.0L1290.5 766.0L0.0 766.0Z" stroke="#cfcfcf" stroke-width="2.0" stroke-dasharray="none" opacity="1.0" fill="none"/><path id="ProcessOnPath1294" d="M0.0 0.0L40.0 0.0L40.0 766.0L0.0 766.0Z" stroke="#cfcfcf" stroke-width="2.0" stroke-dasharray="none" opacity="1.0" fill="#ffffff"/><g id="ProcessOnG1295" transform="matrix(0.0,-1.0,1.0,0.0,10.0,754.0)"><text id="ProcessOnText1296" fill="#000000" font-size="16" x="372.0" y="16.4" font-family="微软雅黑" font-weight="normal" font-style="normal" text-decoration="none" family="微软雅黑" text-anchor="middle" size="16">stage 3</text></g></g><g id="ProcessOnG1297"><path id="ProcessOnPath1298" d="M812.0 1090.9023354564756L812.0 1110.0690021231421L812.0 1110.0690021231421L812.0 1113.9996008123092" stroke="#323232" stroke-width="2.0" stroke-dasharray="none" fill="none" marker-end="url(#ProcessOnMarker1299)"/></g></g></g></svg>